<?xml version="1.0" encoding="UTF-8"?>
<svg version="1.1" xmlns="http://www.w3.org/2000/svg" width="512" height="512">
<path d="M0 0 C0.89115509 -0.00974854 1.78231018 -0.01949707 2.70046997 -0.02954102 C22.63293108 -0.20264286 41.86559565 0.06369901 61.4453125 4.23828125 C62.77079102 4.51115967 62.77079102 4.51115967 64.12304688 4.78955078 C105.34784078 13.49342708 143.65278781 33.55407357 174.4453125 62.23828125 C175.83675916 63.45166344 177.23239889 64.66025928 178.6328125 65.86328125 C185.1320759 71.55663599 190.73301067 77.63695018 196.140625 84.3828125 C197.58642725 86.17413698 199.05707409 87.94598331 200.5625 89.6875 C232.20807149 126.6073334 252.23933452 179.11780235 252.68359375 227.79296875 C252.6933876 228.68398788 252.70318146 229.57500702 252.71327209 230.49302673 C252.96039964 258.82227038 250.6794847 284.97290984 242.4453125 312.23828125 C242.19442871 313.07343262 241.94354492 313.90858398 241.68505859 314.76904297 C231.64027637 347.38390177 213.65619439 377.32137709 190.4453125 402.23828125 C189.23193031 403.62972791 188.02333447 405.02536764 186.8203125 406.42578125 C181.13191228 412.91938881 175.05552873 418.51356958 168.3203125 423.921875 C166.4693159 425.41323503 164.63440401 426.92489871 162.8203125 428.4609375 C150.1286516 439.16952639 136.10973945 447.53147668 121.4453125 455.23828125 C120.7946582 455.58600586 120.14400391 455.93373047 119.47363281 456.29199219 C98.32361913 467.46085567 73.99345117 474.5442304 50.4453125 478.23828125 C49.28974854 478.42084473 48.13418457 478.6034082 46.94360352 478.79150391 C35.67359513 480.39183512 24.5045376 480.63744758 13.1328125 480.61328125 C12.16687164 480.61273743 11.20093079 480.6121936 10.20571899 480.6116333 C-5.69146444 480.57060916 -20.9742443 479.64585488 -36.5546875 476.23828125 C-37.54082031 476.02397461 -38.52695313 475.80966797 -39.54296875 475.58886719 C-80.68601851 466.32763679 -118.66455293 447.01341561 -149.5546875 418.23828125 C-150.94613416 417.02489906 -152.34177389 415.81630322 -153.7421875 414.61328125 C-160.2414509 408.91992651 -165.84238567 402.83961232 -171.25 396.09375 C-172.69580225 394.30242552 -174.16644909 392.53057919 -175.671875 390.7890625 C-207.31744649 353.8692291 -227.34870952 301.35876015 -227.79296875 252.68359375 C-227.8027626 251.79257462 -227.81255646 250.90155548 -227.82264709 249.98353577 C-228.06977464 221.65429212 -225.7888597 195.50365266 -217.5546875 168.23828125 C-217.17836182 166.9855542 -217.17836182 166.9855542 -216.79443359 165.70751953 C-203.42490392 122.29738749 -175.36083111 81.26686088 -139.5546875 53.23828125 C-138.56984375 52.44808594 -137.585 51.65789062 -136.5703125 50.84375 C-98.53859031 20.59941859 -48.96468094 0.44659656 0 0 Z M1.4453125 113.23828125 C-2.64864804 118.43871761 -3.6721021 122.6870075 -3.69512939 129.18280029 C-3.70083954 130.15270905 -3.70654968 131.1226178 -3.71243286 132.12191772 C-3.71355072 133.17448761 -3.71466858 134.2270575 -3.71582031 135.31152344 C-3.72078522 136.42921112 -3.72575012 137.5468988 -3.73086548 138.69845581 C-3.74546373 142.3940289 -3.75228532 146.08955907 -3.7578125 149.78515625 C-3.76356596 152.35719809 -3.76932367 154.92923992 -3.77508545 157.50128174 C-3.7842472 162.20580894 -3.79055014 166.91031904 -3.7935822 171.61485362 C-3.79805868 178.52096158 -3.81559257 185.4268712 -3.8445828 192.33291888 C-3.86887858 198.3306143 -3.87653012 204.3282165 -3.87825775 210.32596588 C-3.8812794 212.86959157 -3.88929139 215.41321652 -3.90244293 217.95681 C-3.91955335 221.52051191 -3.91761063 225.08373428 -3.91113281 228.64746094 C-3.9203476 229.6919339 -3.92956238 230.73640686 -3.9390564 231.81253052 C-3.88411829 241.49167143 -2.29027548 248.15115433 4.59719849 255.15890503 C5.29078461 255.83406158 5.98437073 256.50921814 6.69897461 257.20483398 C7.43425888 257.944207 8.16954315 258.68358002 8.92710876 259.44535828 C11.34471912 261.86895188 13.78303719 264.27045359 16.22265625 266.671875 C17.91389101 268.35698976 19.60394259 270.04329276 21.29286194 271.73072815 C24.82706908 275.25575023 28.37084245 278.77074711 31.92260742 282.27807617 C36.47712902 286.77590459 41.01399679 291.2910269 45.54471493 295.81281948 C49.03095236 299.29074971 52.52281576 302.76298121 56.01678658 306.23314095 C57.69186391 307.89682063 59.36600587 309.56144262 61.03919792 311.22701836 C63.37504815 313.54913688 65.71752221 315.86434628 68.06225586 318.17749023 C68.75381775 318.86681641 69.44537964 319.55614258 70.15789795 320.26635742 C70.79853683 320.89557602 71.43917572 321.52479462 72.09922791 322.17308044 C72.65209441 322.71999763 73.20496092 323.26691481 73.77458096 323.83040524 C77.95002423 327.34892768 81.66892865 327.67566675 86.9765625 327.55078125 C91.97107366 326.91856465 94.56620875 324.20992224 97.8203125 320.61328125 C99.96939241 316.14980759 100.45490226 312.10806716 99.4453125 307.23828125 C96.68639454 302.40763289 93.436572 299.40635154 88.94848633 296.26000977 C32.84009903 255.33581983 32.84009903 255.33581983 26.85030651 224.99632549 C22.52967613 197.32729548 24.56920596 168.25438757 27.25286865 140.49520874 C27.34910869 139.46362609 27.44534872 138.43204344 27.54450512 137.36920071 C27.72772157 135.46720936 27.92752758 133.56669985 28.1483736 131.66870975 C28.73097021 125.69722212 28.21992959 120.64696159 25.4453125 115.23828125 C22.68253072 112.14813645 19.48740278 109.46232353 15.2734375 109 C9.44779485 108.83229211 5.9529774 109.15991777 1.4453125 113.23828125 Z " fill="#910DF7" transform="translate(243.5546875,15.76171875)"/>
</svg>
